<?xml version="1.0" encoding="UTF-8" standalone="no"?>
<!DOCTYPE svg PUBLIC "-//W3C//DTD SVG 1.1//EN" "http://www.w3.org/Graphics/SVG/1.1/DTD/svg11.dtd">
<!-- Created with Vectornator (http://vectornator.io/) -->
<svg height="100%" stroke-miterlimit="10" style="fill-rule:nonzero;clip-rule:evenodd;stroke-linecap:round;stroke-linejoin:round;" version="1.1" viewBox="0 0 1564.24 1834.08" width="100%" xml:space="preserve" xmlns="http://www.w3.org/2000/svg" xmlns:vectornator="http://vectornator.io" xmlns:xlink="http://www.w3.org/1999/xlink">
<defs>
<path d="M48.7517 875.377C356.656 1090.65 304.425 1513.52 505.042 1708.1C650.175 1848.87 867.799 1842.99 1012.9 1702.18C1220.38 1500.82 1200.87 1233.83 1204.54 902.656C1209.75 738.984 1380.84 984.492 1527.49 902.656C1576.38 848.099 1295.29 738.984 1111.98 57.017C905.437 778.087 893.258 871.126 525.37 1093.61C504.944 765.774 935.581 364.205 916.442 57.017L354.276 57.017C338.321 355.735 298.578 572.643 280.951 902.656C184.941 865.194 48.7517 610.143 48.7517 725.345M1026.43 902.656C1026.43 1169.58 1038.65 1380.03 996.003 1485.77C939.834 1625.02 844.739 1682.68 772.733 1692.98C672.022 1707.38 586.403 1658.6 525.37 1557.34C463.429 1454.58 513.149 1352.75 530.944 1322.62C631.714 1152 827.361 1089.62 1026.43 902.656Z" id="Fill"/>
</defs>
<clipPath id="ArtboardFrame">
<rect height="1834.08" width="1564.24" x="0" y="0"/>
</clipPath>
<g clip-path="url(#ArtboardFrame)" id="Layer-2" vectornator:layerName="Layer 2">
<g opacity="1" vectornator:layerName="Group 3">
<path d="M965.742 2425.96C909.395 2717.68 563.602 3071.85 581.961 3366.49C591.146 3360.94 599.929 3355.52 608.679 3350.12C611.561 3335.75 614.828 3321.32 618.898 3306.77C619.785 3303.6 620.772 3300.42 621.711 3297.24C623.81 3290.13 626.02 3283.01 628.367 3275.87C629.394 3272.74 630.45 3269.6 631.523 3266.46C634.127 3258.85 636.853 3251.2 639.711 3243.55C640.656 3241.02 641.582 3238.5 642.554 3235.96C661.767 3185.86 686.089 3135.03 712.898 3083.93C716.614 3076.84 720.405 3069.74 724.211 3062.65C764.498 2987.57 809.049 2912.17 850.367 2837.8C853.301 2832.52 856.253 2827.23 859.148 2821.96C896.508 2753.97 930.371 2686.99 954.429 2622.24C954.434 2622.23 954.456 2622.22 954.461 2622.21C954.546 2621.98 954.625 2621.75 954.711 2621.52C957.742 2613.34 960.631 2605.19 963.336 2597.09C963.377 2596.96 963.419 2596.84 963.461 2596.71C963.551 2596.44 963.62 2596.17 963.711 2595.9C971.028 2573.84 977.018 2552.07 981.554 2530.62C982.338 2526.94 983.174 2523.25 983.867 2519.59C986.771 2504.12 988.952 2488.83 990.117 2473.74C990.131 2473.55 990.165 2473.37 990.179 2473.18C990.187 2473.09 990.172 2472.99 990.179 2472.9C990.728 2465.59 991.075 2458.33 991.179 2451.12C991.2 2449.76 991.175 2448.41 991.179 2447.05C991.198 2439.99 991.083 2432.93 990.648 2425.96L965.742 2425.96Z" fill="#ff7f63" fill-rule="nonzero" opacity="1" stroke="none" vectornator:layerName="Curve 1"/>
<path d="M1293.15 3117.99C1274.08 3119.27 1262.42 3134.61 1261.12 3175.52C1257.44 3506.69 1276.98 3773.69 1069.49 3975.05C924.393 4115.87 706.75 4121.73 561.617 3980.96C364.932 3790.19 411.219 3380.05 122.961 3161.18L122.961 3244.34C129.811 3249.13 136.401 3254.06 142.898 3259.05C144.267 3260.1 145.639 3261.15 146.992 3262.21C153.283 3267.14 159.46 3272.13 165.429 3277.24C166.285 3277.97 167.111 3278.73 167.961 3279.46C173.833 3284.55 179.577 3289.73 185.148 3294.99C185.441 3295.27 185.762 3295.53 186.054 3295.8C186.204 3295.95 186.343 3296.1 186.492 3296.24C192.425 3301.88 198.168 3307.64 203.773 3313.46C205.857 3315.62 207.827 3317.84 209.867 3320.02C219.918 3330.81 229.539 3341.82 238.586 3353.15C243.547 3359.36 248.341 3365.67 253.023 3372.02C253.598 3372.8 254.171 3373.59 254.742 3374.37C259.386 3380.73 263.92 3387.15 268.304 3393.65C268.396 3393.78 268.494 3393.92 268.586 3394.05C275.567 3404.42 282.222 3414.94 288.586 3425.62C288.609 3425.66 288.624 3425.7 288.648 3425.74C325.503 3487.61 352.44 3554.29 375.586 3621.46C380.2 3634.88 384.732 3648.31 389.086 3661.74C390.335 3665.59 391.602 3669.43 392.836 3673.27C408.377 3721.81 422.879 3769.86 438.273 3816.18C439.386 3819.52 440.492 3822.92 441.617 3826.24C456.954 3871.62 473.477 3915.11 493.367 3954.99C493.588 3955.44 493.832 3955.86 494.054 3956.3C499.027 3966.22 504.221 3975.91 509.648 3985.37C510.384 3986.65 511.09 3987.97 511.836 3989.24C514.242 3993.35 516.737 3997.38 519.242 4001.4C520.924 4004.1 522.638 4006.77 524.367 4009.43C526.504 4012.71 528.625 4016 530.836 4019.21C534.756 4024.91 538.792 4030.52 542.961 4035.99C544.63 4038.18 546.375 4040.28 548.086 4042.43C551.463 4046.67 554.913 4050.84 558.461 4054.93C560.059 4056.77 561.67 4058.59 563.304 4060.4C568.455 4066.1 573.717 4071.7 579.242 4077.05C597.383 4094.65 616.65 4109.95 636.773 4122.99C651.866 4132.77 667.438 4141.29 683.367 4148.52C715.224 4162.99 748.506 4172.39 782.273 4176.8C782.283 4176.81 782.294 4176.8 782.304 4176.8C889.225 4190.78 1000.94 4154.75 1087.09 4071.15C1093.58 4064.85 1099.84 4058.49 1105.9 4052.05C1124.04 4032.79 1140.24 4012.97 1154.74 3992.55C1159.57 3985.75 1164.22 3978.89 1168.68 3971.96C1182.05 3951.16 1193.78 3929.78 1204.05 3907.84C1210.91 3893.21 1217.11 3878.32 1222.74 3863.18C1233.99 3832.91 1242.93 3801.61 1250.02 3769.3C1250.03 3769.29 1250.02 3769.28 1250.02 3769.27C1253.57 3753.12 1256.65 3736.72 1259.34 3720.05C1280.85 3586.74 1276.91 3437.2 1278.74 3271.62C1278.9 3266.5 1279.23 3261.8 1279.71 3257.46C1289.81 3166.36 1368.77 3241.54 1462.84 3274.9C1462.84 3274.9 1462.86 3274.89 1462.87 3274.9C1467.34 3276.48 1471.83 3277.99 1476.37 3279.37C1476.38 3279.37 1476.39 3279.36 1476.4 3279.37C1490.01 3283.49 1503.9 3286.58 1517.87 3287.99C1522.53 3288.46 1527.22 3288.73 1531.9 3288.8C1555.27 3289.19 1578.78 3284.4 1601.68 3271.62C1602.98 3270.16 1603.96 3268.66 1604.8 3267.12C1605.09 3266.59 1605.35 3266.04 1605.59 3265.49C1606.26 3263.94 1606.8 3262.37 1607.05 3260.71C1607.08 3260.55 1607.06 3260.37 1607.09 3260.21C1607.29 3258.62 1607.25 3256.95 1607.09 3255.24C1607.03 3254.69 1606.96 3254.12 1606.87 3253.55C1606.57 3251.73 1606.14 3249.87 1605.46 3247.9C1604.45 3244.97 1602.98 3241.8 1601.18 3238.49C1600.79 3237.78 1600.29 3237.01 1599.87 3236.27C1598.34 3233.63 1596.57 3230.87 1594.59 3227.96C1593.88 3226.93 1593.18 3225.87 1592.43 3224.8C1589.88 3221.21 1587.1 3217.44 1583.96 3213.4C1583.95 3213.38 1583.94 3213.35 1583.93 3213.34C1577.69 3205.32 1569.62 3195.62 1561.21 3185.49C1457.38 3220.44 1346.41 3114.42 1293.15 3117.99Z" fill="#ff7f63" fill-rule="nonzero" opacity="1" stroke="none" vectornator:layerName="Curve 2"/>
<path d="M1083.02 3175.52C883.953 3362.48 688.292 3424.87 587.523 3595.49C571.061 3623.37 527.361 3712.61 569.929 3807.18C572.197 3763.05 587.151 3725.93 598.367 3704.02C600.827 3699.24 603.243 3694.81 605.148 3691.59C630.34 3648.93 661.464 3613.04 697.086 3580.27C705.991 3572.08 715.171 3564.1 724.617 3556.24C824.2 3473.41 952.591 3405.84 1083.59 3287.21C1083.28 3251.13 1083.02 3214.11 1083.02 3175.52Z" fill="#ff7f63" fill-rule="nonzero" opacity="1" stroke="none" vectornator:layerName="Curve 3"/>
</g>
<g opacity="1" vectornator:layerName="Group 2">
<g opacity="1" vectornator:layerName="Group 1">
<use fill="#000000" fill-rule="nonzero" opacity="1" stroke="none" vectornator:layerName="path 1" xlink:href="#Fill"/>
<clipPath clip-rule="nonzero" id="ClipPath">
<use xlink:href="#Fill"/>
</clipPath>
<g clip-path="url(#ClipPath)">
<path d="M1393.11 490L1792.85 845.203L711.632 2061.99L311.893 1706.78L1393.11 490Z" fill="#34d399" fill-rule="nonzero" opacity="1" stroke="none" vectornator:layerName="Rectangle 3"/>
<path d="M1192.2-101.086L1597.96 259.47L1217.17 688.011L219.485 1810.78L-186.277 1450.23L1192.2-101.086Z" fill="#8b5cf6" fill-rule="nonzero" opacity="1" stroke="none" vectornator:layerName="Rectangle 4"/>
<path d="M619.784-324.875L1052.4 59.5386L-28.8237 1276.32L-461.436 891.908L619.784-324.875Z" fill="#ff7f63" fill-rule="nonzero" opacity="1" stroke="none" vectornator:layerName="Rectangle 1"/>
</g>
</g>
<path d="M31.1306 779.291C339.035 994.567 286.804 1417.43 487.421 1612.02C632.554 1752.79 850.178 1746.91 995.276 1606.09C1202.76 1404.73 1183.25 1137.74 1186.92 806.569C1192.12 642.897 1363.22 888.405 1509.87 806.569C1558.75 752.012 1277.67 642.897 1094.36-39.0697C887.816 682 875.637 775.039 507.749 997.52C487.323 669.688 917.96 268.118 898.821-39.0697L336.655-39.0697C320.7 259.648 280.957 476.556 263.329 806.569C167.32 769.108 31.1306 514.056 31.1306 629.258M1008.81 806.569C1008.81 1073.5 1021.03 1283.95 978.382 1389.68C922.213 1528.93 827.118 1586.6 755.112 1596.89C654.401 1611.29 568.782 1562.51 507.749 1461.26C445.808 1358.49 495.528 1256.67 513.323 1226.54C614.093 1055.92 809.74 993.529 1008.81 806.569Z" fill="#ffffff" fill-rule="nonzero" opacity="1" stroke="none" vectornator:layerName="path"/>
</g>
</g>
<g id="Layer-1" vectornator:layerName="Layer 1"/>
</svg>
