<?xml version="1.0" encoding="UTF-8" standalone="no"?>
<!DOCTYPE svg PUBLIC "-//W3C//DTD SVG 1.1//EN" "http://www.w3.org/Graphics/SVG/1.1/DTD/svg11.dtd">
<!-- Created with Vectornator (http://vectornator.io/) -->
<svg height="100%" stroke-miterlimit="10" style="fill-rule:nonzero;clip-rule:evenodd;stroke-linecap:round;stroke-linejoin:round;" version="1.1" viewBox="0 0 1607.22 2066.4" width="100%" xml:space="preserve" xmlns="http://www.w3.org/2000/svg" xmlns:vectornator="http://vectornator.io" xmlns:xlink="http://www.w3.org/1999/xlink">
<defs>
<path d="M1688.79 993.637C1996.69 1208.91 1944.46 1631.77 2145.08 1826.36C2290.21 1967.13 2507.84 1961.25 2652.93 1820.44C2860.42 1619.08 2840.91 1352.09 2844.58 1020.92C2849.78 857.243 3020.88 1102.75 3167.53 1020.92C3216.41 966.358 2935.33 857.243 2752.01 175.276C2545.47 896.346 2533.29 989.385 2165.41 1211.87C2144.98 884.034 2575.62 482.464 2556.48 175.276L1994.31 175.276C1978.36 473.994 1938.61 690.902 1920.99 1020.92C1824.98 983.453 1688.79 728.402 1688.79 843.604M2666.47 1020.92C2666.47 1287.84 2678.69 1498.29 2636.04 1604.03C2579.87 1743.28 2484.78 1800.94 2412.77 1811.24C2312.06 1825.64 2226.44 1776.86 2165.41 1675.6C2103.47 1572.84 2153.19 1471.01 2170.98 1440.88C2271.75 1270.26 2467.4 1207.88 2666.47 1020.92Z" id="Fill"/>
</defs>
<clipPath id="ArtboardFrame">
<rect height="2066.4" width="1607.22" x="0" y="0"/>
</clipPath>
<g clip-path="url(#ArtboardFrame)" id="Layer-2" vectornator:layerName="Layer 2">
<path d="M921.844 184.312C865.497 476.029 519.704 830.199 538.062 1124.84C547.248 1119.29 556.031 1113.87 564.781 1108.47C567.663 1094.11 570.93 1079.67 575 1065.12C575.887 1061.95 576.874 1058.77 577.812 1055.59C579.912 1048.49 582.122 1041.36 584.469 1034.22C585.496 1031.09 586.552 1027.95 587.625 1024.81C590.229 1017.2 592.955 1009.56 595.812 1001.91C596.758 999.374 597.684 996.849 598.656 994.312C617.869 944.208 642.191 893.381 669 842.281C672.716 835.194 676.507 828.096 680.312 821C720.599 745.921 765.151 670.518 806.469 596.156C809.403 590.874 812.355 585.583 815.25 580.312C852.61 512.32 886.473 445.34 910.531 380.594C910.536 380.581 910.558 380.575 910.562 380.562C910.648 380.331 910.727 380.106 910.812 379.875C913.844 371.694 916.733 363.545 919.438 355.438C919.479 355.312 919.521 355.188 919.562 355.062C919.653 354.791 919.722 354.521 919.812 354.25C927.129 332.191 933.12 310.419 937.656 288.969C938.44 285.288 939.276 281.599 939.969 277.938C942.873 262.476 945.054 247.183 946.219 232.094C946.233 231.906 946.267 231.719 946.281 231.531C946.289 231.437 946.274 231.344 946.281 231.25C946.829 223.94 947.176 216.685 947.281 209.469C947.302 208.112 947.277 206.76 947.281 205.406C947.3 198.337 947.185 191.287 946.75 184.312L921.844 184.312Z" fill="#ff7f63" fill-rule="nonzero" opacity="1" stroke="none" vectornator:layerName="Curve 1"/>
<path d="M1249.25 876.344C1230.19 877.622 1218.52 892.957 1217.22 933.875C1213.55 1265.05 1233.08 1532.04 1025.59 1733.41C880.495 1874.22 662.852 1880.08 517.719 1739.31C321.034 1548.54 367.321 1138.4 79.0625 919.531L79.0625 1002.69C85.913 1007.48 92.5029 1012.41 99 1017.41C100.368 1018.46 101.74 1019.5 103.094 1020.56C109.385 1025.49 115.562 1030.48 121.531 1035.59C122.387 1036.33 123.213 1037.08 124.062 1037.81C129.935 1042.91 135.679 1048.08 141.25 1053.34C141.543 1053.62 141.864 1053.88 142.156 1054.16C142.306 1054.3 142.445 1054.45 142.594 1054.59C148.527 1060.24 154.27 1065.99 159.875 1071.81C161.959 1073.97 163.929 1076.19 165.969 1078.38C176.02 1089.16 185.64 1100.17 194.688 1111.5C199.649 1117.71 204.443 1124.02 209.125 1130.38C209.699 1131.15 210.273 1131.94 210.844 1132.72C215.488 1139.09 220.022 1145.5 224.406 1152C224.498 1152.14 224.596 1152.27 224.688 1152.41C231.669 1162.78 238.324 1173.29 244.688 1183.97C244.711 1184.01 244.726 1184.05 244.75 1184.09C281.605 1245.96 308.542 1312.64 331.688 1379.81C336.302 1393.23 340.834 1406.66 345.188 1420.09C346.437 1423.94 347.704 1427.78 348.938 1431.62C364.479 1480.16 378.98 1528.21 394.375 1574.53C395.488 1577.87 396.594 1581.27 397.719 1584.59C413.056 1629.97 429.579 1673.46 449.469 1713.34C449.69 1713.79 449.934 1714.21 450.156 1714.66C455.129 1724.57 460.323 1734.27 465.75 1743.72C466.486 1745 467.192 1746.32 467.938 1747.59C470.344 1751.71 472.839 1755.73 475.344 1759.75C477.026 1762.45 478.74 1765.12 480.469 1767.78C482.606 1771.06 484.727 1774.36 486.938 1777.56C490.858 1783.26 494.894 1788.88 499.062 1794.34C500.732 1796.53 502.476 1798.64 504.188 1800.78C507.565 1805.03 511.015 1809.19 514.562 1813.28C516.161 1815.12 517.772 1816.94 519.406 1818.75C524.557 1824.45 529.819 1830.05 535.344 1835.41C553.485 1853 572.752 1868.31 592.875 1881.34C607.968 1891.12 623.54 1899.64 639.469 1906.88C671.326 1921.35 704.608 1930.74 738.375 1935.16C738.385 1935.16 738.396 1935.15 738.406 1935.16C845.327 1949.13 957.043 1913.1 1043.19 1829.5C1049.68 1823.2 1055.94 1816.84 1062 1810.41C1080.14 1791.14 1096.35 1771.32 1110.84 1750.91C1115.68 1744.1 1120.32 1737.25 1124.78 1730.31C1138.16 1709.52 1149.88 1688.13 1160.16 1666.19C1167.01 1651.56 1173.22 1636.67 1178.84 1621.53C1190.1 1591.26 1199.03 1559.96 1206.12 1527.66C1206.13 1527.65 1206.12 1527.63 1206.12 1527.62C1209.67 1511.47 1212.75 1495.07 1215.44 1478.41C1236.96 1345.09 1233.01 1195.55 1234.84 1029.97C1235.01 1024.85 1235.33 1020.15 1235.81 1015.81C1245.91 924.713 1324.87 999.894 1418.94 1033.25C1418.95 1033.25 1418.96 1033.25 1418.97 1033.25C1423.44 1034.83 1427.94 1036.35 1432.47 1037.72C1432.48 1037.72 1432.49 1037.72 1432.5 1037.72C1446.12 1041.84 1460 1044.94 1473.97 1046.34C1478.63 1046.81 1483.32 1047.08 1488 1047.16C1511.37 1047.54 1534.88 1042.75 1557.78 1029.97C1559.08 1028.52 1560.06 1027.01 1560.91 1025.47C1561.2 1024.94 1561.45 1024.39 1561.69 1023.84C1562.36 1022.29 1562.91 1020.72 1563.16 1019.06C1563.18 1018.9 1563.17 1018.73 1563.19 1018.56C1563.39 1016.97 1563.36 1015.3 1563.19 1013.59C1563.13 1013.04 1563.06 1012.48 1562.97 1011.91C1562.67 1010.08 1562.24 1008.22 1561.56 1006.25C1560.56 1003.32 1559.09 1000.15 1557.28 996.844C1556.89 996.131 1556.39 995.358 1555.97 994.625C1554.44 991.986 1552.67 989.221 1550.69 986.312C1549.99 985.283 1549.29 984.222 1548.53 983.156C1545.98 979.557 1543.21 975.792 1540.06 971.75C1540.05 971.735 1540.04 971.703 1540.03 971.688C1533.79 963.668 1525.73 953.969 1517.31 943.844C1413.48 978.795 1302.51 872.771 1249.25 876.344Z" fill="#ff7f63" fill-rule="nonzero" opacity="1" stroke="none" vectornator:layerName="Curve 2"/>
<path d="M1039.12 933.875C840.055 1120.83 644.394 1183.22 543.625 1353.84C527.163 1381.72 483.462 1470.96 526.031 1565.53C528.299 1521.4 543.253 1484.29 554.469 1462.38C556.929 1457.59 559.345 1453.16 561.25 1449.94C586.442 1407.28 617.566 1371.39 653.188 1338.62C662.093 1330.43 671.273 1322.45 680.719 1314.59C780.302 1231.76 908.693 1164.19 1039.69 1045.56C1039.38 1009.48 1039.12 972.462 1039.12 933.875Z" fill="#ff7f63" fill-rule="nonzero" opacity="1" stroke="none" vectornator:layerName="Curve 3"/>
<g opacity="1" vectornator:layerName="Group 2">
<g opacity="1" vectornator:layerName="Group 1">
<use fill="#000000" fill-rule="nonzero" opacity="1" stroke="none" vectornator:layerName="path 1" xlink:href="#Fill"/>
<clipPath clip-rule="nonzero" id="ClipPath">
<use xlink:href="#Fill"/>
</clipPath>
<g clip-path="url(#ClipPath)">
<path d="M3033.15 608.259L3432.89 963.462L2351.67 2180.25L1951.93 1825.04L3033.15 608.259Z" fill="#34d399" fill-rule="nonzero" opacity="1" stroke="none" vectornator:layerName="Rectangle 3"/>
<path d="M2832.24 17.1733L3238 377.729L2857.2 806.27L1859.52 1929.04L1453.76 1568.49L2832.24 17.1733Z" fill="#8b5cf6" fill-rule="nonzero" opacity="1" stroke="none" vectornator:layerName="Rectangle 4"/>
<path d="M2259.82-206.616L2692.43 177.798L1611.21 1394.58L1178.6 1010.17L2259.82-206.616Z" fill="#ff7f63" fill-rule="nonzero" opacity="1" stroke="none" vectornator:layerName="Rectangle 1"/>
</g>
</g>
<path d="M1671.17 897.55C1979.07 1112.83 1926.84 1535.69 2127.46 1730.28C2272.59 1871.05 2490.21 1865.17 2635.31 1724.35C2842.8 1522.99 2823.29 1256 2826.96 924.828C2832.16 761.156 3003.26 1006.66 3149.91 924.828C3198.79 870.271 2917.71 761.156 2734.39 79.1894C2527.85 800.259 2515.67 893.298 2147.79 1115.78C2127.36 787.947 2558 386.377 2538.86 79.1894L1976.69 79.1894C1960.74 377.907 1920.99 594.815 1903.37 924.828C1807.36 887.367 1671.17 632.315 1671.17 747.517M2648.85 924.828C2648.85 1191.75 2661.07 1402.21 2618.42 1507.94C2562.25 1647.19 2467.15 1704.85 2395.15 1715.15C2294.44 1729.55 2208.82 1680.77 2147.79 1579.52C2085.85 1476.75 2135.57 1374.93 2153.36 1344.8C2254.13 1174.17 2449.78 1111.79 2648.85 924.828Z" fill="#ffffff" fill-rule="nonzero" opacity="1" stroke="none" vectornator:layerName="path"/>
</g>
</g>
<g id="Layer-1" vectornator:layerName="Layer 1"/>
</svg>
